<svg width="66" height="66" viewBox="0 0 66 66" fill="none" xmlns="http://www.w3.org/2000/svg"> <g clip-path="url(#clip0)"> <path d="M38.4527 18.4852H19.207C18.1758 18.4852 17.3379 17.6473 17.3379 16.616C17.3379 15.5848 18.1758 14.7469 19.207 14.7469H38.4527C39.484 14.7469 40.3219 15.5848 40.3219 16.616C40.3219 17.6473 39.484 18.4852 38.4527 18.4852Z" fill="#2D527C"/> <path d="M23.3191 49.4871H17.3766C7.79883 49.4871 0 41.6883 0 32.1106C0 25.7684 3.45469 19.9289 9.02344 16.8739C9.92578 16.3711 11.073 16.7063 11.5758 17.6215C12.0785 18.5239 11.7434 19.6711 10.8281 20.1739C6.4582 22.5715 3.75117 27.1477 3.75117 32.1235C3.75117 39.6387 9.86133 45.7489 17.3766 45.7489H23.3191C24.3504 45.7489 25.1883 46.5868 25.1883 47.618C25.2012 48.6364 24.3504 49.4871 23.3191 49.4871Z" fill="#2D527C"/> <path d="M24.9176 63.2027C16.3711 63.2027 9.41016 56.2418 9.41016 47.6824C9.41016 46.6512 10.248 45.8133 11.2793 45.8133C12.3105 45.8133 13.1484 46.6512 13.1484 47.6824C13.1484 54.1664 18.4207 59.4516 24.9176 59.4516C31.4145 59.4516 36.6867 54.1793 36.6867 47.6824C36.6867 41.1985 31.4145 35.9133 24.9176 35.9133C21.6563 35.9133 18.627 37.2152 16.384 39.5742C15.675 40.3219 14.4891 40.3606 13.7285 39.6387C12.9809 38.9297 12.9422 37.7438 13.6641 36.9832C16.6289 33.8637 20.625 32.1492 24.9176 32.1492C33.477 32.1492 40.4379 39.1102 40.4379 47.6695C40.4379 56.2289 33.477 63.2027 24.9176 63.2027Z" fill="#F0BF5F"/> <path d="M49.5645 45.7875H38.1177C37.0864 45.7875 36.2485 44.9496 36.2485 43.9184C36.2485 42.8871 37.0864 42.0493 38.1177 42.0493H49.5645C50.5958 42.0493 51.4337 42.8871 51.4337 43.9184C51.4337 44.9496 50.5958 45.7875 49.5645 45.7875Z" fill="#F0BF5F"/> <path d="M61.8106 53.3285H38.5559C37.5247 53.3285 36.6868 52.4906 36.6868 51.4594C36.6868 50.4281 37.5247 49.5902 38.5559 49.5902H61.8106C62.0555 49.5902 62.2489 49.3969 62.2489 49.1519V38.5043C62.2489 38.1433 61.9524 37.8598 61.6043 37.8598H59.9801C59.6192 37.8598 59.3356 38.1562 59.3356 38.5043V43.5058C59.3356 44.5371 58.4977 45.375 57.4664 45.375C56.4352 45.375 55.5973 44.5371 55.5973 43.5058V38.5043C55.5973 36.0808 57.5696 34.1086 59.993 34.1086H61.6172C64.0407 34.1086 66.0129 36.0808 66.0129 38.5043V49.1519C66 51.4465 64.118 53.3285 61.8106 53.3285Z" fill="#F0BF5F"/> <path d="M24.9175 52.9418C27.8649 52.9418 30.2543 50.5524 30.2543 47.605C30.2543 44.6576 27.8649 42.2683 24.9175 42.2683C21.9701 42.2683 19.5808 44.6576 19.5808 47.605C19.5808 50.5524 21.9701 52.9418 24.9175 52.9418Z" fill="#CEE8FA"/> <path d="M24.9175 54.8109C20.9472 54.8109 17.7117 51.5753 17.7117 47.605C17.7117 43.6347 20.9472 40.3992 24.9175 40.3992C28.8878 40.3992 32.1234 43.6347 32.1234 47.605C32.1234 51.5753 28.9007 54.8109 24.9175 54.8109ZM24.9175 44.1503C23.0097 44.1503 21.4628 45.6972 21.4628 47.605C21.4628 49.5128 23.0097 51.0597 24.9175 51.0597C26.8253 51.0597 28.3722 49.5128 28.3722 47.605C28.3722 45.6972 26.8253 44.1503 24.9175 44.1503Z" fill="#F0BF5F"/> <path d="M27.8953 24.5695V8.64957C27.8953 6.45817 29.6742 4.67926 31.8656 4.67926H60.1476C62.339 4.67926 64.1179 6.45817 64.1179 8.64957V24.5695C64.1179 26.7609 62.339 28.5398 60.1476 28.5398H31.8785C29.6742 28.5398 27.8953 26.7609 27.8953 24.5695Z" fill="#CEE8FA"/> <path d="M60.1476 30.4219H31.8785C28.6558 30.4219 26.0261 27.7922 26.0261 24.5696V8.64965C26.0261 5.42699 28.6558 2.7973 31.8785 2.7973H60.1605C63.3832 2.7973 66.0128 5.42699 66.0128 8.64965V24.5696C66 27.7922 63.3703 30.4219 60.1476 30.4219ZM31.8785 6.54847C30.7183 6.54847 29.7773 7.48949 29.7773 8.64965V24.5696C29.7773 25.7297 30.7183 26.6707 31.8785 26.6707H60.1605C61.3207 26.6707 62.2617 25.7297 62.2617 24.5696V8.64965C62.2617 7.48949 61.3207 6.54847 60.1605 6.54847H31.8785Z" fill="#2D527C"/> <path d="M44.4468 17.7118H43.8152V16.5645C43.8152 15.9071 43.1578 15.4817 42.1394 15.4817C41.1211 15.4817 40.4636 15.9071 40.4636 16.5645V17.7118H39.3164L42.5519 11.2149C42.6035 11.086 42.6679 10.9313 42.6679 10.7766C42.6679 9.96453 41.5851 9.46179 40.9922 9.46179C40.3734 9.46179 39.8707 9.77117 39.5871 10.3255L35.2043 18.9493C35.0496 19.2329 35.0238 19.4778 35.0238 19.6067C35.0238 20.3286 35.5008 20.8184 36.1968 20.8184H40.4636V22.6489C40.4636 23.4095 41.3273 23.7446 42.1394 23.7446C42.9386 23.7446 43.8152 23.3966 43.8152 22.6489V20.8184H44.4468C45.014 20.8184 45.5425 20.0579 45.5425 19.2587C45.5425 18.511 45.1945 17.7118 44.4468 17.7118Z" fill="#2D527C"/> <path d="M55.8937 17.7118H55.262V16.5645C55.262 15.9071 54.6046 15.4817 53.5863 15.4817C52.5679 15.4817 51.9105 15.9071 51.9105 16.5645V17.7118H50.7632L54.0116 11.2149C54.0632 11.086 54.1277 10.9313 54.1277 10.7766C54.1277 9.96453 53.0448 9.46179 52.4519 9.46179C51.8331 9.46179 51.3304 9.77117 51.0468 10.3255L46.664 18.9493C46.5093 19.2329 46.4835 19.4778 46.4835 19.6067C46.4835 20.3286 46.9605 20.8184 47.6566 20.8184H51.9234V22.6489C51.9234 23.4095 52.787 23.7446 53.5991 23.7446C54.4113 23.7446 55.2749 23.3966 55.2749 22.6489V20.8184H55.9066C56.4738 20.8184 57.0023 20.0579 57.0023 19.2587C57.0023 18.511 56.6542 17.7118 55.8937 17.7118Z" fill="#2D527C"/> </g> <defs> <clipPath id="clip0"> <rect width="66" height="66" fill="white"/> </clipPath> </defs> </svg>
