<svg width="64" height="66" viewBox="0 0 64 66" fill="none" xmlns="http://www.w3.org/2000/svg">
<g clip-path="url(#clip0)">
<path d="M32.7875 29.5453C31.8 29.5453 30.9875 28.7203 30.9875 27.6891V6.63867C31 3.32578 33.7751 0.644531 37.2001 0.644531C40.6251 0.644531 43.4001 3.33867 43.4001 6.65156C43.4001 7.66992 42.6 8.50781 41.6 8.50781C40.6 8.50781 39.8 7.68281 39.8 6.65156C39.8 5.38828 38.625 4.35703 37.1875 4.35703C35.75 4.35703 34.5751 5.38828 34.5751 6.65156V27.702C34.5876 28.7074 33.7875 29.5453 32.7875 29.5453Z" fill="#F0BF5F"/>
<path d="M53.3875 34.9078C52.4 34.9078 51.5875 34.0828 51.5875 33.0516V6.63867C51.6 3.32578 54.375 0.644531 57.8 0.644531C61.225 0.644531 64 3.32578 64 6.63867C64 7.65703 63.2 8.49492 62.2 8.49492C61.2125 8.49492 60.4 7.66992 60.4 6.63867C60.4 5.37539 59.225 4.34414 57.7875 4.34414C56.35 4.34414 55.175 5.37539 55.175 6.63867V33.0516C55.1875 34.0699 54.3875 34.9078 53.3875 34.9078Z" fill="#F0BF5F"/>
<path d="M42.5009 16.1133H32.8009C31.8134 16.1133 31.0009 15.2883 31.0009 14.257C31.0009 13.2258 31.8009 12.4008 32.8009 12.4008H42.5009C43.4884 12.4008 44.3009 13.2258 44.3009 14.257C44.3009 15.2883 43.4884 16.1133 42.5009 16.1133Z" fill="#F0BF5F"/>
<path d="M42.5009 29.5453H32.8009C31.8134 29.5453 31.0009 28.7203 31.0009 27.6891C31.0009 26.6578 31.8009 25.8328 32.8009 25.8328H42.5009C43.4884 25.8328 44.3009 26.6578 44.3009 27.6891C44.2884 28.7074 43.4884 29.5453 42.5009 29.5453Z" fill="#F0BF5F"/>
<path d="M53.3876 22.8293H43.6876C42.7001 22.8293 41.8876 22.0043 41.8876 20.9731C41.8876 19.9418 42.6876 19.1168 43.6876 19.1168H53.3876C54.3751 19.1168 55.1876 19.9418 55.1876 20.9731C55.1876 22.0043 54.3876 22.8293 53.3876 22.8293Z" fill="#F0BF5F"/>
<path d="M58.9624 48.3527C58.9624 50.5699 56.3999 52.3617 53.2249 52.3617C50.0624 52.3617 47.4874 50.5699 47.4874 48.3527C47.4874 50.5699 44.9249 52.3617 41.7499 52.3617C38.5874 52.3617 36.0124 50.5699 36.0124 48.3527H36.0999C36.0999 50.5699 33.5374 52.3617 30.3624 52.3617C27.1874 52.3617 24.6249 50.5699 24.6249 48.3527C24.6249 50.5699 22.0624 52.3617 18.8874 52.3617C15.7125 52.3617 13.15 50.5699 13.15 48.3527H13.2375C13.2375 50.5699 10.675 52.3617 7.49995 52.3617C4.32495 52.3617 1.76245 50.5699 1.76245 48.3527V37.009C1.76245 39.2262 4.32495 41.018 7.49995 41.018C10.675 41.018 13.2375 39.2262 13.2375 37.009H13.15C13.15 39.2262 15.7125 41.018 18.8874 41.018C22.0624 41.018 24.6249 39.2262 24.6249 37.009C24.6249 39.2262 27.1874 41.018 30.3624 41.018C33.5374 41.018 36.0999 39.2262 36.0999 37.009H36.0124C36.0124 39.2262 38.5749 41.018 41.7499 41.018C44.9249 41.018 47.4874 39.2262 47.4874 37.009C47.4874 39.2262 50.0499 41.018 53.2249 41.018C56.3999 41.018 58.9624 39.2262 58.9624 37.009V48.3527Z" fill="#CEE8FA"/>
<path d="M53.225 54.218C50.9 54.218 48.8625 53.4445 47.4875 52.1941C46.1125 53.4445 44.075 54.218 41.75 54.218C39.475 54.218 37.4375 53.4574 36.0625 52.2328C34.6875 53.4574 32.65 54.218 30.375 54.218C28.05 54.218 26.0125 53.4445 24.6375 52.1941C23.2625 53.4445 21.225 54.218 18.9 54.218C16.625 54.218 14.5875 53.4574 13.2125 52.2328C11.8375 53.4703 9.8 54.218 7.525 54.218C3.3 54.218 0 51.6398 0 48.3527V37.009C0 35.9906 0.8 35.1527 1.8 35.1527C2.8 35.1527 3.6 35.9777 3.6 37.009C3.6 38.0016 5.325 39.1617 7.5375 39.1617C9.5375 39.1617 11.075 38.2723 11.4125 37.3699C11.4 37.2539 11.4 37.125 11.4 37.009C11.4 35.9906 12.2 35.1527 13.2 35.1527H13.2875C14.275 35.1527 15.0875 35.9777 15.0875 37.009C15.0875 37.125 15.0875 37.2539 15.075 37.3699C15.4125 38.2723 16.95 39.1617 18.95 39.1617C21.1625 39.1617 22.8875 38.0016 22.8875 37.009C22.8875 35.9906 23.6875 35.1527 24.6875 35.1527C25.6875 35.1527 26.4875 35.9777 26.4875 37.009C26.4875 38.0016 28.2125 39.1617 30.425 39.1617C32.425 39.1617 33.9625 38.2723 34.3 37.3699C34.2875 37.2539 34.2875 37.125 34.2875 37.009C34.2875 35.9906 35.0875 35.1527 36.0875 35.1527H36.175C37.1625 35.1527 37.975 35.9777 37.975 37.009C37.975 37.125 37.975 37.2539 37.9625 37.3699C38.3 38.2723 39.8375 39.1617 41.8375 39.1617C44.05 39.1617 45.775 38.0016 45.775 37.009C45.775 35.9906 46.575 35.1527 47.575 35.1527C48.5625 35.1527 49.375 35.9777 49.375 37.009C49.375 38.0016 51.1 39.1617 53.3125 39.1617C55.525 39.1617 57.25 38.0016 57.25 37.009C57.25 35.9906 58.05 35.1527 59.05 35.1527C60.05 35.1527 60.85 35.9777 60.85 37.009V48.3527C60.7625 51.6398 57.45 54.218 53.225 54.218ZM49.2875 48.3527C49.2875 49.3453 51.0125 50.5055 53.225 50.5055C55.4375 50.5055 57.1625 49.3453 57.1625 48.3527V42.0234C56.025 42.552 54.675 42.8613 53.225 42.8613C50.9 42.8613 48.8625 42.0879 47.4875 40.8375C46.1125 42.0879 44.075 42.8613 41.75 42.8613C39.475 42.8613 37.4375 42.1008 36.0625 40.8762C34.6875 42.1137 32.65 42.8613 30.375 42.8613C28.05 42.8613 26.0125 42.0879 24.6375 40.8375C23.2625 42.0879 21.225 42.8613 18.9 42.8613C16.625 42.8613 14.5875 42.1008 13.2125 40.8762C11.8375 42.1137 9.8 42.8613 7.525 42.8613C6.075 42.8613 4.725 42.552 3.5875 42.0234V48.3527C3.5875 49.3453 5.3125 50.5055 7.525 50.5055C9.525 50.5055 11.0625 49.616 11.4 48.7137C11.3875 48.5977 11.3875 48.4688 11.3875 48.3527C11.3875 47.3344 12.1875 46.4965 13.1875 46.4965H13.275C14.2625 46.4965 15.075 47.3215 15.075 48.3527C15.075 48.4688 15.075 48.5977 15.0625 48.7137C15.4 49.616 16.9375 50.5055 18.9375 50.5055C21.15 50.5055 22.875 49.3453 22.875 48.3527C22.875 47.3344 23.675 46.4965 24.675 46.4965C25.675 46.4965 26.475 47.3215 26.475 48.3527C26.475 49.3453 28.2 50.5055 30.4125 50.5055C32.4125 50.5055 33.95 49.616 34.2875 48.7137C34.275 48.5977 34.275 48.4688 34.275 48.3527C34.275 47.3344 35.075 46.4965 36.075 46.4965H36.1625C37.15 46.4965 37.9625 47.3215 37.9625 48.3527C37.9625 48.4688 37.9625 48.5977 37.95 48.7137C38.2875 49.616 39.825 50.5055 41.825 50.5055C44.0375 50.5055 45.7625 49.3453 45.7625 48.3527C45.7625 47.3344 46.5625 46.4965 47.5625 46.4965C48.4875 46.5094 49.2875 47.3344 49.2875 48.3527Z" fill="#2D527C"/>
<path d="M41.7624 65.3555C39.4624 65.3555 37.4374 64.5949 36.0749 63.3703C34.6999 64.5949 32.6749 65.3555 30.3874 65.3555C28.0624 65.3555 26.0249 64.582 24.6499 63.3317C23.275 64.582 21.2375 65.3555 18.9125 65.3555C14.6875 65.3555 11.3875 62.7774 11.3875 59.4903C11.3875 58.4719 12.1875 57.634 13.1875 57.634H13.275C14.2625 57.634 15.075 58.459 15.075 59.4903C15.075 59.5934 15.0625 59.7094 15.05 59.8125C15.3625 60.7278 16.95 61.6559 18.9375 61.6559C21.15 61.6559 22.875 60.4957 22.875 59.5031C22.875 58.4848 23.6749 57.6469 24.6749 57.6469C25.6749 57.6469 26.4749 58.4719 26.4749 59.5031C26.4749 60.4957 28.2 61.6559 30.4125 61.6559C32.375 61.6559 33.9374 60.7535 34.275 59.8512C34.2624 59.7352 34.2624 59.6192 34.2624 59.4903C34.2624 58.4719 35.0624 57.634 36.0624 57.634H36.1499C37.1374 57.634 37.9499 58.459 37.9499 59.4903C37.9499 59.6063 37.9499 59.7223 37.9374 59.8512C38.2749 60.7535 39.8499 61.6559 41.7999 61.6559C44.0124 61.6559 45.7374 60.4957 45.7374 59.5031C45.7374 58.4848 46.5374 57.6469 47.5374 57.6469C48.5249 57.6469 49.3374 58.4719 49.3374 59.5031C49.2874 62.7903 45.9874 65.3555 41.7624 65.3555Z" fill="#2D527C"/>
</g>
<defs>
<clipPath id="clip0">
<rect width="64" height="66" fill="white"/>
</clipPath>
</defs>
</svg>
